<svg version="1.1" xmlns="http://www.w3.org/2000/svg" xmlns:xlink="http://www.w3.org/1999/xlink" width="750" height="488"><defs></defs><g><g transform="translate(-34,-38) scale(1,1)"><rect fill="#ffffff" stroke="none" x="76" y="356" width="547" height="160"></rect></g><g transform="translate(-34,-38) scale(1,1)"><path fill="none" stroke="#000000" d="M 76 356 L 623 356 L 623 516 L 76 516 L 76 356 Z Z" stroke-miterlimit="10"></path></g><g transform="translate(-34,-38) scale(1,1)"><path fill="none" stroke="#000000" d="M 76 381 L 623 381" stroke-miterlimit="10"></path></g><g transform="translate(-34,-38) scale(1,1)"><path fill="none" stroke="#000000" d="M 76 449 L 623 449" stroke-miterlimit="10"></path></g><g transform="translate(-34,-38) scale(1,1)"><g><path fill="none" stroke="none"></path><text fill="#000000" stroke="none" font-family="Arial" font-size="13px" font-style="normal" font-weight="bold" text-decoration="none" x="321" y="375.5">Ingredient</text></g></g><g transform="translate(-34,-38) scale(1,1)"><g><path fill="none" stroke="none"></path><text fill="#000000" stroke="none" font-family="Arial" font-size="13px" font-style="normal" font-weight="normal" text-decoration="none" x="81" y="398.5">+id: number</text></g></g><g transform="translate(-34,-38) scale(1,1)"><g><path fill="none" stroke="none"></path><text fill="#000000" stroke="none" font-family="Arial" font-size="13px" font-style="normal" font-weight="normal" text-decoration="none" x="81" y="413.5">+name: string</text></g></g><g transform="translate(-34,-38) scale(1,1)"><g><path fill="none" stroke="none"></path><text fill="#000000" stroke="none" font-family="Arial" font-size="13px" font-style="normal" font-weight="normal" text-decoration="none" x="81" y="428.5">+isBlacklisted: bool</text></g></g><g transform="translate(-34,-38) scale(1,1)"><g><path fill="none" stroke="none"></path><text fill="#000000" stroke="none" font-family="Arial" font-size="13px" font-style="normal" font-weight="normal" text-decoration="none" x="81" y="443.5">+categories: Category[0..*]</text></g></g><g transform="translate(-34,-38) scale(1,1)"><g><path fill="none" stroke="none"></path><text fill="#000000" stroke="none" font-family="Arial" font-size="13px" font-style="normal" font-weight="normal" text-decoration="none" x="81" y="466.5">+getBlacklist(authToken: string): Ingredient[0..*]</text><path fill="none" stroke="#000000" d="M 81 466.5 L 359 466.5" stroke-miterlimit="10"></path></g></g><g transform="translate(-34,-38) scale(1,1)"><g><path fill="none" stroke="none"></path><text fill="#000000" stroke="none" font-family="Arial" font-size="13px" font-style="normal" font-weight="normal" text-decoration="none" x="81" y="481.5">+getAll(authToken: string): Ingredient[0..*]</text><path fill="none" stroke="#000000" d="M 81 481.5 L 324 481.5" stroke-miterlimit="10"></path></g></g><g transform="translate(-34,-38) scale(1,1)"><g><path fill="none" stroke="none"></path><text fill="#000000" stroke="none" font-family="Arial" font-size="13px" font-style="normal" font-weight="normal" text-decoration="none" x="81" y="496.5">+search(authToken, searchString: string): Ingredient[0..*]</text><path fill="none" stroke="#000000" d="M 81 496.5 L 411 496.5" stroke-miterlimit="10"></path></g></g><g transform="translate(-34,-38) scale(1,1)"><g><path fill="none" stroke="none"></path><text fill="#000000" stroke="none" font-family="Arial" font-size="13px" font-style="normal" font-weight="normal" text-decoration="none" x="81" y="511.5">+Ingredient(id: number, name: string, isBlacklisted: bool, categories: Category[0..*])</text></g></g><g transform="translate(-34,-38) scale(1,1)"><rect fill="#ffffff" stroke="none" x="44" y="48" width="474" height="205"></rect></g><g transform="translate(-34,-38) scale(1,1)"><path fill="none" stroke="#000000" d="M 44 48 L 518 48 L 518 253 L 44 253 L 44 48 Z Z" stroke-miterlimit="10"></path></g><g transform="translate(-34,-38) scale(1,1)"><path fill="none" stroke="#000000" d="M 44 73 L 518 73" stroke-miterlimit="10"></path></g><g transform="translate(-34,-38) scale(1,1)"><path fill="none" stroke="#000000" d="M 44 126 L 518 126" stroke-miterlimit="10"></path></g><g transform="translate(-34,-38) scale(1,1)"><g><path fill="none" stroke="none"></path><text fill="#000000" stroke="none" font-family="Arial" font-size="13px" font-style="normal" font-weight="bold" text-decoration="none" x="267.5" y="67.5">User</text></g></g><g transform="translate(-34,-38) scale(1,1)"><g><path fill="none" stroke="none"></path><text fill="#000000" stroke="none" font-family="Arial" font-size="13px" font-style="normal" font-weight="normal" text-decoration="none" x="49" y="90.5">+id: Number</text></g></g><g transform="translate(-34,-38) scale(1,1)"><g><path fill="none" stroke="none"></path><text fill="#000000" stroke="none" font-family="Arial" font-size="13px" font-style="normal" font-weight="normal" text-decoration="none" x="49" y="105.5">+email: String</text></g></g><g transform="translate(-34,-38) scale(1,1)"><g><path fill="none" stroke="none"></path><text fill="#000000" stroke="none" font-family="Arial" font-size="13px" font-style="normal" font-weight="normal" text-decoration="none" x="49" y="120.5">+devices: Device[0..*]</text></g></g><g transform="translate(-34,-38) scale(1,1)"><g><path fill="none" stroke="none"></path><text fill="#000000" stroke="none" font-family="Arial" font-size="13px" font-style="normal" font-weight="normal" text-decoration="none" x="49" y="143.5">+create(email: string, password: string): User</text><path fill="none" stroke="#000000" d="M 49 143.5 L 310 143.5" stroke-miterlimit="10"></path></g></g><g transform="translate(-34,-38) scale(1,1)"><g><path fill="none" stroke="none"></path><text fill="#000000" stroke="none" font-family="Arial" font-size="13px" font-style="normal" font-weight="normal" text-decoration="none" x="49" y="158.5">+logIn(email: string, password: string): User</text><path fill="none" stroke="#000000" d="M 49 158.5 L 302 158.5" stroke-miterlimit="10"></path></g></g><g transform="translate(-34,-38) scale(1,1)"><g><path fill="none" stroke="none"></path><text fill="#000000" stroke="none" font-family="Arial" font-size="13px" font-style="normal" font-weight="normal" text-decoration="none" x="49" y="173.5">+User(email: string, id: int, blacklist[0..*], devices: Device[0..*])</text></g></g><g transform="translate(-34,-38) scale(1,1)"><g><path fill="none" stroke="none"></path><text fill="#000000" stroke="none" font-family="Arial" font-size="13px" font-style="normal" font-weight="normal" text-decoration="none" x="49" y="188.5">+changeEmail(newEmail: string, password: string)</text></g></g><g transform="translate(-34,-38) scale(1,1)"><g><path fill="none" stroke="none"></path><text fill="#000000" stroke="none" font-family="Arial" font-size="13px" font-style="normal" font-weight="normal" text-decoration="none" x="49" y="203.5">+changePassword(oldPassword: string, newPassword: string)</text></g></g><g transform="translate(-34,-38) scale(1,1)"><g><path fill="none" stroke="none"></path><text fill="#000000" stroke="none" font-family="Arial" font-size="13px" font-style="normal" font-weight="normal" text-decoration="none" x="49" y="218.5">+addDevice()</text></g></g><g transform="translate(-34,-38) scale(1,1)"><g><path fill="none" stroke="none"></path><text fill="#000000" stroke="none" font-family="Arial" font-size="13px" font-style="normal" font-weight="normal" text-decoration="none" x="49" y="233.5">+removeDevice()</text></g></g><g transform="translate(-34,-38) scale(1,1)"><rect fill="#ffffff" stroke="none" x="652" y="72" width="122" height="76"></rect></g><g transform="translate(-34,-38) scale(1,1)"><path fill="none" stroke="#000000" d="M 652 72 L 774 72 L 774 148 L 652 148 L 652 72 Z Z" stroke-miterlimit="10"></path></g><g transform="translate(-34,-38) scale(1,1)"><path fill="none" stroke="#000000" d="M 652 97 L 774 97" stroke-miterlimit="10"></path></g><g transform="translate(-34,-38) scale(1,1)"><path fill="none" stroke="#000000" d="M 652 135 L 774 135" stroke-miterlimit="10"></path></g><g transform="translate(-34,-38) scale(1,1)"><g><path fill="none" stroke="none"></path><text fill="#000000" stroke="none" font-family="Arial" font-size="13px" font-style="normal" font-weight="bold" text-decoration="none" x="693" y="91.5">Device</text></g></g><g transform="translate(-34,-38) scale(1,1)"><g><path fill="none" stroke="none"></path><text fill="#000000" stroke="none" font-family="Arial" font-size="13px" font-style="normal" font-weight="normal" text-decoration="none" x="657" y="114.5">+id: Number</text></g></g><g transform="translate(-34,-38) scale(1,1)"><g><path fill="none" stroke="none"></path><text fill="#000000" stroke="none" font-family="Arial" font-size="13px" font-style="normal" font-weight="normal" text-decoration="none" x="657" y="129.5">+name: String</text></g></g><g transform="translate(-34,-38) scale(1,1)"><path fill="none" stroke="#000000" d="M 713 148 L 713 182 L 518 182" stroke-miterlimit="10"></path></g><g transform="translate(-34,-38) scale(1,1)"><path fill="#FFFFFF" stroke="none" d="M 528.1626748576241 177.790482243984 L 518 182 L 528.1626748576241 186.209517756016 L 540 182"></path></g><g transform="translate(-34,-38) scale(1,1)"><path fill="none" stroke="#000000" d="M 528.1626748576241 177.790482243984 L 518 182 L 528.1626748576241 186.209517756016 L 540 182 L 528.1626748576241 177.790482243984" stroke-miterlimit="10"></path></g></g></svg>