<svg version="1.1" xmlns="http://www.w3.org/2000/svg" xmlns:xlink="http://www.w3.org/1999/xlink" width="1135" height="795"><defs></defs><g><g transform="translate(-54,-10) scale(1,1)"><rect fill="#C0C0C0" stroke="none" x="1011" y="27" width="175" height="44" opacity="0.2"></rect></g><g transform="translate(-54,-10) scale(1,1)"><rect fill="#ffffff" stroke="none" x="1004" y="20" width="175" height="44"></rect></g><g transform="translate(-54,-10) scale(1,1)"><path fill="none" stroke="#000000" d="M 1004 20 L 1179 20 L 1179 64 L 1004 64 L 1004 20 Z Z" stroke-miterlimit="10"></path></g><g transform="translate(-54,-10) scale(1,1)"><path fill="none" stroke="#000000" d="M 1004 45 L 1179 45" stroke-miterlimit="10"></path></g><g transform="translate(-54,-10) scale(1,1)"><path fill="none" stroke="#000000" d="M 1004 55 L 1179 55" stroke-miterlimit="10"></path></g><g transform="translate(-54,-10) scale(1,1)"><g><path fill="none" stroke="none"></path><text fill="#000000" stroke="none" font-family="Arial" font-size="13px" font-style="italic" font-weight="bold" text-decoration="none" x="1014" y="39.5">vuzix.speech.VoiceControl</text></g></g><g transform="translate(-54,-10) scale(1,1)"><rect fill="#C0C0C0" stroke="none" x="523" y="27" width="324" height="102" opacity="0.2"></rect></g><g transform="translate(-54,-10) scale(1,1)"><rect fill="#ffffff" stroke="none" x="516" y="20" width="324" height="102"></rect></g><g transform="translate(-54,-10) scale(1,1)"><path fill="none" stroke="#000000" d="M 516 20 L 840 20 L 840 122 L 516 122 L 516 20 Z Z" stroke-miterlimit="10"></path></g><g transform="translate(-54,-10) scale(1,1)"><path fill="none" stroke="#000000" d="M 516 45 L 840 45" stroke-miterlimit="10"></path></g><g transform="translate(-54,-10) scale(1,1)"><path fill="none" stroke="#000000" d="M 516 55 L 840 55" stroke-miterlimit="10"></path></g><g transform="translate(-54,-10) scale(1,1)"><g><path fill="none" stroke="none"></path><text fill="#000000" stroke="none" font-family="Arial" font-size="13px" font-style="normal" font-weight="bold" text-decoration="none" x="632" y="39.5">MyVoiceControl</text></g></g><g transform="translate(-54,-10) scale(1,1)"><g><path fill="none" stroke="none"></path><text fill="#000000" stroke="none" font-family="Arial" font-size="13px" font-style="normal" font-weight="normal" text-decoration="none" x="521" y="72.5">+myVC(Context context)</text></g></g><g transform="translate(-54,-10) scale(1,1)"><g><path fill="none" stroke="none"></path><text fill="#000000" stroke="none" font-family="Arial" font-size="13px" font-style="normal" font-weight="normal" text-decoration="none" x="521" y="87.5">+myVC(Context context, String[] input)</text></g></g><g transform="translate(-54,-10) scale(1,1)"><g><path fill="none" stroke="none"></path><text fill="#000000" stroke="none" font-family="Arial" font-size="13px" font-style="normal" font-weight="normal" text-decoration="none" x="521" y="102.5">+myVC(Context context, String[] input, String[] input2)</text></g></g><g transform="translate(-54,-10) scale(1,1)"><g><path fill="none" stroke="none"></path><text fill="#000000" stroke="none" font-family="Arial" font-size="13px" font-style="normal" font-weight="normal" text-decoration="none" x="521" y="117.5">+onRecognition(String input): void</text></g></g><g transform="translate(-54,-10) scale(1,1)"><path fill="none" stroke="#000000" d="M 840 40 L 1004 40" stroke-miterlimit="10"></path></g><g transform="translate(-54,-10) scale(1,1)"><path fill="#FFFFFF" stroke="none" d="M 983.6746502847517 48.419035512031975 L 1004 40 L 983.6746502847517 31.580964487968025"></path></g><g transform="translate(-54,-10) scale(1,1)"><path fill="none" stroke="#000000" d="M 983.6746502847517 48.419035512031975 L 1004 40 L 983.6746502847517 31.580964487968025 L 983.6746502847517 48.419035512031975" stroke-miterlimit="10"></path></g><g transform="translate(-54,-10) scale(1,1)"><path fill="none" stroke="#000000" d="M 684 196 L 684 122" stroke-miterlimit="10"></path></g><g transform="translate(-54,-10) scale(1,1)"><path fill="#FFFFFF" stroke="none" d="M 688.209517756016 132.16267485762415 L 684 122 L 679.790482243984 132.16267485762415 L 684 144"></path></g><g transform="translate(-54,-10) scale(1,1)"><path fill="none" stroke="#000000" d="M 688.209517756016 132.16267485762415 L 684 122 L 679.790482243984 132.16267485762415 L 684 144 L 688.209517756016 132.16267485762415" stroke-miterlimit="10"></path></g><g transform="translate(-54,-10) scale(1,1)"><g><path fill="none" stroke="none"></path><text fill="#000000" stroke="none" font-family="Arial" font-size="13px" font-style="normal" font-weight="normal" text-decoration="none" x="685" y="181">0..1</text></g></g><g transform="translate(-54,-10) scale(1,1)"><g><path fill="none" stroke="none"></path><text fill="#000000" stroke="none" font-family="Arial" font-size="13px" font-style="normal" font-weight="normal" text-decoration="none" x="693" y="150">1</text></g></g><g transform="translate(-54,-10) scale(1,1)"><rect fill="#C0C0C0" stroke="none" x="591" y="383" width="134" height="44" opacity="0.2"></rect></g><g transform="translate(-54,-10) scale(1,1)"><rect fill="#ffffff" stroke="none" x="584" y="376" width="134" height="44"></rect></g><g transform="translate(-54,-10) scale(1,1)"><path fill="none" stroke="#000000" d="M 584 376 L 718 376 L 718 420 L 584 420 L 584 376 Z Z" stroke-miterlimit="10"></path></g><g transform="translate(-54,-10) scale(1,1)"><path fill="none" stroke="#000000" d="M 584 401 L 718 401" stroke-miterlimit="10"></path></g><g transform="translate(-54,-10) scale(1,1)"><path fill="none" stroke="#000000" d="M 584 411 L 718 411" stroke-miterlimit="10"></path></g><g transform="translate(-54,-10) scale(1,1)"><g><path fill="none" stroke="none"></path><text fill="#000000" stroke="none" font-family="Arial" font-size="13px" font-style="normal" font-weight="bold" text-decoration="none" x="593.5" y="395.5">android.app.Activity</text></g></g><g transform="translate(-54,-10) scale(1,1)"><rect fill="#C0C0C0" stroke="none" x="71" y="355" width="381" height="87" opacity="0.2"></rect></g><g transform="translate(-54,-10) scale(1,1)"><rect fill="#ffffff" stroke="none" x="64" y="348" width="381" height="87"></rect></g><g transform="translate(-54,-10) scale(1,1)"><path fill="none" stroke="#000000" d="M 64 348 L 445 348 L 445 435 L 64 435 L 64 348 Z Z" stroke-miterlimit="10"></path></g><g transform="translate(-54,-10) scale(1,1)"><path fill="none" stroke="#000000" d="M 64 373 L 445 373" stroke-miterlimit="10"></path></g><g transform="translate(-54,-10) scale(1,1)"><path fill="none" stroke="#000000" d="M 64 383 L 445 383" stroke-miterlimit="10"></path></g><g transform="translate(-54,-10) scale(1,1)"><g><path fill="none" stroke="none"></path><text fill="#000000" stroke="none" font-family="Arial" font-size="13px" font-style="normal" font-weight="bold" text-decoration="none" x="217.5" y="367.5">ScanActivity</text></g></g><g transform="translate(-54,-10) scale(1,1)"><g><path fill="none" stroke="none"></path><text fill="#000000" stroke="none" font-family="Arial" font-size="13px" font-style="normal" font-weight="normal" text-decoration="none" x="69" y="400.5">+onCreate(): void</text></g></g><g transform="translate(-54,-10) scale(1,1)"><g><path fill="none" stroke="none"></path><text fill="#000000" stroke="none" font-family="Arial" font-size="13px" font-style="normal" font-weight="normal" text-decoration="none" x="69" y="415.5">+onResume(): void</text></g></g><g transform="translate(-54,-10) scale(1,1)"><g><path fill="none" stroke="none"></path><text fill="#000000" stroke="none" font-family="Arial" font-size="13px" font-style="normal" font-weight="normal" text-decoration="none" x="69" y="430.5">+onActivityResult(reqCode: int, resCode: int, intent: Intent): void</text></g></g><g transform="translate(-54,-10) scale(1,1)"><path fill="none" stroke="#000000" d="M 445 396 L 584 396" stroke-miterlimit="10"></path></g><g transform="translate(-54,-10) scale(1,1)"><path fill="#FFFFFF" stroke="none" d="M 563.6746502847517 404.419035512032 L 584 396 L 563.6746502847517 387.580964487968"></path></g><g transform="translate(-54,-10) scale(1,1)"><path fill="none" stroke="#000000" d="M 563.6746502847517 404.419035512032 L 584 396 L 563.6746502847517 387.580964487968 L 563.6746502847517 404.419035512032" stroke-miterlimit="10"></path></g><g transform="translate(-54,-10) scale(1,1)"><rect fill="#C0C0C0" stroke="none" x="563" y="491" width="242" height="100" opacity="0.2"></rect></g><g transform="translate(-54,-10) scale(1,1)"><rect fill="#ffffff" stroke="none" x="556" y="484" width="242" height="100"></rect></g><g transform="translate(-54,-10) scale(1,1)"><path fill="none" stroke="#000000" d="M 556 484 L 798 484 L 798 584 L 556 584 L 556 484 Z Z" stroke-miterlimit="10"></path></g><g transform="translate(-54,-10) scale(1,1)"><path fill="none" stroke="#000000" d="M 556 509 L 798 509" stroke-miterlimit="10"></path></g><g transform="translate(-54,-10) scale(1,1)"><path fill="none" stroke="#000000" d="M 556 532 L 798 532" stroke-miterlimit="10"></path></g><g transform="translate(-54,-10) scale(1,1)"><g><path fill="none" stroke="none"></path><text fill="#000000" stroke="none" font-family="Arial" font-size="13px" font-style="normal" font-weight="bold" text-decoration="none" x="625.5" y="503.5">ServerConnection</text></g></g><g transform="translate(-54,-10) scale(1,1)"><g><path fill="none" stroke="none"></path><text fill="#000000" stroke="none" font-family="Arial" font-size="13px" font-style="normal" font-weight="normal" text-decoration="none" x="561" y="526.5">#URL</text><path fill="none" stroke="#000000" d="M 561 526.5 L 593 526.5" stroke-miterlimit="10"></path></g></g><g transform="translate(-54,-10) scale(1,1)"><g><path fill="none" stroke="none"></path><text fill="#000000" stroke="none" font-family="Arial" font-size="13px" font-style="normal" font-weight="normal" text-decoration="none" x="561" y="549.5">+getItem(EAN: Char[13]): ArticleData</text><path fill="none" stroke="#000000" d="M 561 549.5 L 777 549.5" stroke-miterlimit="10"></path></g></g><g transform="translate(-54,-10) scale(1,1)"><g><path fill="none" stroke="none"></path><text fill="#000000" stroke="none" font-family="Arial" font-size="13px" font-style="normal" font-weight="normal" text-decoration="none" x="561" y="564.5">+postRegCode(EAN: Char[13]): void</text><path fill="none" stroke="#000000" d="M 561 564.5 L 771 564.5" stroke-miterlimit="10"></path></g></g><g transform="translate(-54,-10) scale(1,1)"><g><path fill="none" stroke="none"></path><text fill="#000000" stroke="none" font-family="Arial" font-size="13px" font-style="normal" font-weight="normal" text-decoration="none" x="561" y="579.5">#sendHTTP(Json: String): String</text><path fill="none" stroke="#000000" d="M 561 579.5 L 750 579.5" stroke-miterlimit="10"></path></g></g><g transform="translate(-54,-10) scale(1,1)"><path fill="none" stroke="#000000" d="M 307 435 L 307 534 L 556 534" stroke-miterlimit="10"></path></g><g transform="translate(-54,-10) scale(1,1)"><path fill="none" stroke="#000000" d="M 545.8373251423759 538.209517756016 L 556 534 L 545.8373251423758 529.790482243984" stroke-miterlimit="10"></path></g><g transform="translate(-54,-10) scale(1,1)"><rect fill="#C0C0C0" stroke="none" x="511" y="687" width="179" height="115" opacity="0.2"></rect></g><g transform="translate(-54,-10) scale(1,1)"><rect fill="#ffffff" stroke="none" x="504" y="680" width="179" height="115"></rect></g><g transform="translate(-54,-10) scale(1,1)"><path fill="none" stroke="#000000" d="M 504 680 L 683 680 L 683 795 L 504 795 L 504 680 Z Z" stroke-miterlimit="10"></path></g><g transform="translate(-54,-10) scale(1,1)"><path fill="none" stroke="#000000" d="M 504 705 L 683 705" stroke-miterlimit="10"></path></g><g transform="translate(-54,-10) scale(1,1)"><path fill="none" stroke="#000000" d="M 504 758 L 683 758" stroke-miterlimit="10"></path></g><g transform="translate(-54,-10) scale(1,1)"><g><path fill="none" stroke="none"></path><text fill="#000000" stroke="none" font-family="Arial" font-size="13px" font-style="normal" font-weight="bold" text-decoration="none" x="561.5" y="699.5">ArticleData</text></g></g><g transform="translate(-54,-10) scale(1,1)"><g><path fill="none" stroke="none"></path><text fill="#000000" stroke="none" font-family="Arial" font-size="13px" font-style="normal" font-weight="normal" text-decoration="none" x="509" y="722.5">+Barcode: Char[13]</text></g></g><g transform="translate(-54,-10) scale(1,1)"><g><path fill="none" stroke="none"></path><text fill="#000000" stroke="none" font-family="Arial" font-size="13px" font-style="normal" font-weight="normal" text-decoration="none" x="509" y="737.5">+Ingredients: String[1..n]</text></g></g><g transform="translate(-54,-10) scale(1,1)"><g><path fill="none" stroke="none"></path><text fill="#000000" stroke="none" font-family="Arial" font-size="13px" font-style="normal" font-weight="normal" text-decoration="none" x="509" y="752.5">+XIngredients: String[0..n]</text></g></g><g transform="translate(-54,-10) scale(1,1)"><g><path fill="none" stroke="none"></path><text fill="#000000" stroke="none" font-family="Arial" font-size="13px" font-style="normal" font-weight="normal" text-decoration="none" x="509" y="775.5">+getIngredients(): String[1..n]</text></g></g><g transform="translate(-54,-10) scale(1,1)"><g><path fill="none" stroke="none"></path><text fill="#000000" stroke="none" font-family="Arial" font-size="13px" font-style="normal" font-weight="normal" text-decoration="none" x="509" y="790.5">+isEdible(): boolean</text></g></g><g transform="translate(-54,-10) scale(1,1)"><path fill="none" stroke="#000000" d="M 608 584 L 608 680" stroke-miterlimit="10"></path></g><g transform="translate(-54,-10) scale(1,1)"><path fill="none" stroke="#000000" d="M 603.790482243984 669.8373251423759 L 608 680 L 612.209517756016 669.8373251423759" stroke-miterlimit="10"></path></g><g transform="translate(-54,-10) scale(1,1)"><rect fill="#C0C0C0" stroke="none" x="551" y="203" width="262" height="117" opacity="0.2"></rect></g><g transform="translate(-54,-10) scale(1,1)"><rect fill="#ffffff" stroke="none" x="544" y="196" width="262" height="117"></rect></g><g transform="translate(-54,-10) scale(1,1)"><path fill="none" stroke="#000000" d="M 544 196 L 806 196 L 806 313 L 544 313 L 544 196 Z Z" stroke-miterlimit="10"></path></g><g transform="translate(-54,-10) scale(1,1)"><path fill="none" stroke="#000000" d="M 544 221 L 806 221" stroke-miterlimit="10"></path></g><g transform="translate(-54,-10) scale(1,1)"><path fill="none" stroke="#000000" d="M 544 231 L 806 231" stroke-miterlimit="10"></path></g><g transform="translate(-54,-10) scale(1,1)"><g><path fill="none" stroke="none"></path><text fill="#000000" stroke="none" font-family="Arial" font-size="13px" font-style="normal" font-weight="bold" text-decoration="none" x="639" y="215.5">MainActivity</text></g></g><g transform="translate(-54,-10) scale(1,1)"><g><path fill="none" stroke="none"></path><text fill="#000000" stroke="none" font-family="Arial" font-size="13px" font-style="normal" font-weight="normal" text-decoration="none" x="549" y="248.5">+onCreate(): void</text></g></g><g transform="translate(-54,-10) scale(1,1)"><g><path fill="none" stroke="none"></path><text fill="#000000" stroke="none" font-family="Arial" font-size="13px" font-style="normal" font-weight="normal" text-decoration="none" x="549" y="263.5">+onResume(): void</text></g></g><g transform="translate(-54,-10) scale(1,1)"><g><path fill="none" stroke="none"></path><text fill="#000000" stroke="none" font-family="Arial" font-size="13px" font-style="normal" font-weight="normal" text-decoration="none" x="549" y="278.5">+renderArticle(artData: ArticleData): void</text></g></g><g transform="translate(-54,-10) scale(1,1)"><g><path fill="none" stroke="none"></path><text fill="#000000" stroke="none" font-family="Arial" font-size="13px" font-style="normal" font-weight="normal" text-decoration="none" x="549" y="293.5">-isConnected(oAuthToken: String): boolean</text></g></g><g transform="translate(-54,-10) scale(1,1)"><g><path fill="none" stroke="none"></path><text fill="#000000" stroke="none" font-family="Arial" font-size="13px" font-style="normal" font-weight="normal" text-decoration="none" x="549" y="308.5">-connect(connectCode: Char[13]): void</text></g></g><g transform="translate(-54,-10) scale(1,1)"><path fill="none" stroke="#000000" d="M 648 313 L 648 376" stroke-miterlimit="10"></path></g><g transform="translate(-54,-10) scale(1,1)"><path fill="#FFFFFF" stroke="none" d="M 639.580964487968 355.6746502847517 L 648 376 L 656.419035512032 355.6746502847517"></path></g><g transform="translate(-54,-10) scale(1,1)"><path fill="none" stroke="#000000" d="M 639.580964487968 355.6746502847517 L 648 376 L 656.419035512032 355.6746502847517 L 639.580964487968 355.6746502847517" stroke-miterlimit="10"></path></g><g transform="translate(-54,-10) scale(1,1)"><rect fill="#C0C0C0" stroke="none" x="247" y="155" width="265" height="44" opacity="0.2"></rect></g><g transform="translate(-54,-10) scale(1,1)"><rect fill="#ffffff" stroke="none" x="240" y="148" width="265" height="44"></rect></g><g transform="translate(-54,-10) scale(1,1)"><path fill="none" stroke="#000000" d="M 240 148 L 505 148 L 505 192 L 240 192 L 240 148 Z Z" stroke-miterlimit="10"></path></g><g transform="translate(-54,-10) scale(1,1)"><path fill="none" stroke="#000000" d="M 240 173 L 505 173" stroke-miterlimit="10"></path></g><g transform="translate(-54,-10) scale(1,1)"><path fill="none" stroke="#000000" d="M 240 183 L 505 183" stroke-miterlimit="10"></path></g><g transform="translate(-54,-10) scale(1,1)"><g><path fill="none" stroke="none"></path><text fill="#000000" stroke="none" font-family="Arial" font-size="13px" font-style="normal" font-weight="bold" text-decoration="none" x="256" y="167.5">zxing.integration.android.IntentIntegrator</text></g></g><g transform="translate(-54,-10) scale(1,1)"><path fill="none" stroke="#000000" d="M 364 192 L 364 348" stroke-miterlimit="10"></path></g><g transform="translate(-54,-10) scale(1,1)"><path fill="none" stroke="#000000" d="M 359.790482243984 337.83732514237585 L 364 348 L 368.209517756016 337.83732514237585" stroke-miterlimit="10"></path></g><g transform="translate(-54,-10) scale(1,1)"><rect fill="#C0C0C0" stroke="none" x="79" y="247" width="244" height="44" opacity="0.2"></rect></g><g transform="translate(-54,-10) scale(1,1)"><rect fill="#ffffff" stroke="none" x="72" y="240" width="244" height="44"></rect></g><g transform="translate(-54,-10) scale(1,1)"><path fill="none" stroke="#000000" d="M 72 240 L 316 240 L 316 284 L 72 284 L 72 240 Z Z" stroke-miterlimit="10"></path></g><g transform="translate(-54,-10) scale(1,1)"><path fill="none" stroke="#000000" d="M 72 265 L 316 265" stroke-miterlimit="10"></path></g><g transform="translate(-54,-10) scale(1,1)"><path fill="none" stroke="#000000" d="M 72 275 L 316 275" stroke-miterlimit="10"></path></g><g transform="translate(-54,-10) scale(1,1)"><g><path fill="none" stroke="none"></path><text fill="#000000" stroke="none" font-family="Arial" font-size="13px" font-style="normal" font-weight="bold" text-decoration="none" x="86.5" y="259.5">zxing.integration.android.IntentResult</text></g></g><g transform="translate(-54,-10) scale(1,1)"><path fill="none" stroke="#000000" d="M 180 284 L 180 348" stroke-miterlimit="10"></path></g><g transform="translate(-54,-10) scale(1,1)"><path fill="none" stroke="#000000" d="M 175.790482243984 337.83732514237585 L 180 348 L 184.209517756016 337.83732514237585" stroke-miterlimit="10"></path></g><g transform="translate(-54,-10) scale(1,1)"><path fill="none" stroke="#000000" d="M 544 244 L 416 244 L 416 348" stroke-miterlimit="10"></path></g><g transform="translate(-54,-10) scale(1,1)"><path fill="none" stroke="#000000" d="M 772 313 L 772 484" stroke-miterlimit="10"></path></g></g></svg>