<svg version="1.1" xmlns="http://www.w3.org/2000/svg" xmlns:xlink="http://www.w3.org/1999/xlink" width="1568" height="552"><defs></defs><g><g transform="translate(-54,-10) scale(1,1)"><rect fill="#ffffff" stroke="none" x="1004" y="20" width="201" height="44"></rect></g><g transform="translate(-54,-10) scale(1,1)"><path fill="none" stroke="#000000" d="M 1004 20 L 1205 20 L 1205 64 L 1004 64 L 1004 20 Z Z" stroke-miterlimit="10"></path></g><g transform="translate(-54,-10) scale(1,1)"><path fill="none" stroke="#000000" d="M 1004 45 L 1205 45" stroke-miterlimit="10"></path></g><g transform="translate(-54,-10) scale(1,1)"><path fill="none" stroke="#000000" d="M 1004 55 L 1205 55" stroke-miterlimit="10"></path></g><g transform="translate(-54,-10) scale(1,1)"><g><path fill="none" stroke="none"></path><text fill="#000000" stroke="none" font-family="Arial" font-size="13px" font-style="italic" font-weight="bold" text-decoration="none" x="1020" y="39.5">vuzix.speech.VoiceControl</text></g></g><g transform="translate(-54,-10) scale(1,1)"><rect fill="#ffffff" stroke="none" x="516" y="20" width="362" height="102"></rect></g><g transform="translate(-54,-10) scale(1,1)"><path fill="none" stroke="#000000" d="M 516 20 L 878 20 L 878 122 L 516 122 L 516 20 Z Z" stroke-miterlimit="10"></path></g><g transform="translate(-54,-10) scale(1,1)"><path fill="none" stroke="#000000" d="M 516 45 L 878 45" stroke-miterlimit="10"></path></g><g transform="translate(-54,-10) scale(1,1)"><path fill="none" stroke="#000000" d="M 516 55 L 878 55" stroke-miterlimit="10"></path></g><g transform="translate(-54,-10) scale(1,1)"><g><path fill="none" stroke="none"></path><text fill="#000000" stroke="none" font-family="Arial" font-size="13px" font-style="normal" font-weight="bold" text-decoration="none" x="647.5" y="39.5">MyVoiceControl</text></g></g><g transform="translate(-54,-10) scale(1,1)"><g><path fill="none" stroke="none"></path><text fill="#000000" stroke="none" font-family="Arial" font-size="13px" font-style="normal" font-weight="normal" text-decoration="none" x="521" y="72.5">+myVC(Context context)</text></g></g><g transform="translate(-54,-10) scale(1,1)"><g><path fill="none" stroke="none"></path><text fill="#000000" stroke="none" font-family="Arial" font-size="13px" font-style="normal" font-weight="normal" text-decoration="none" x="521" y="87.5">+myVC(Context context, String[] input)</text></g></g><g transform="translate(-54,-10) scale(1,1)"><g><path fill="none" stroke="none"></path><text fill="#000000" stroke="none" font-family="Arial" font-size="13px" font-style="normal" font-weight="normal" text-decoration="none" x="521" y="102.5">+myVC(Context context, String[] input, String[] input2)</text></g></g><g transform="translate(-54,-10) scale(1,1)"><g><path fill="none" stroke="none"></path><text fill="#000000" stroke="none" font-family="Arial" font-size="13px" font-style="normal" font-weight="normal" text-decoration="none" x="521" y="117.5">+onRecognition(String input): void</text></g></g><g transform="translate(-54,-10) scale(1,1)"><path fill="none" stroke="#000000" d="M 878 40 L 1004 40" stroke-miterlimit="10"></path></g><g transform="translate(-54,-10) scale(1,1)"><path fill="#FFFFFF" stroke="none" d="M 983.6746502847517 48.419035512031975 L 1004 40 L 983.6746502847517 31.580964487968025"></path></g><g transform="translate(-54,-10) scale(1,1)"><path fill="none" stroke="#000000" d="M 983.6746502847517 48.419035512031975 L 1004 40 L 983.6746502847517 31.580964487968025 L 983.6746502847517 48.419035512031975" stroke-miterlimit="10"></path></g><g transform="translate(-54,-10) scale(1,1)"><path fill="none" stroke="#000000" d="M 684 196 L 684 122" stroke-miterlimit="10"></path></g><g transform="translate(-54,-10) scale(1,1)"><path fill="#FFFFFF" stroke="none" d="M 688.209517756016 132.16267485762415 L 684 122 L 679.790482243984 132.16267485762415 L 684 144"></path></g><g transform="translate(-54,-10) scale(1,1)"><path fill="none" stroke="#000000" d="M 688.209517756016 132.16267485762415 L 684 122 L 679.790482243984 132.16267485762415 L 684 144 L 688.209517756016 132.16267485762415" stroke-miterlimit="10"></path></g><g transform="translate(-54,-10) scale(1,1)"><g><path fill="none" stroke="none"></path><text fill="#000000" stroke="none" font-family="Arial" font-size="13px" font-style="normal" font-weight="normal" text-decoration="none" x="684" y="181">0..1</text></g></g><g transform="translate(-54,-10) scale(1,1)"><g><path fill="none" stroke="none"></path><text fill="#000000" stroke="none" font-family="Arial" font-size="13px" font-style="normal" font-weight="normal" text-decoration="none" x="692" y="150">1</text></g></g><g transform="translate(-54,-10) scale(1,1)"><rect fill="#ffffff" stroke="none" x="584" y="376" width="159" height="44"></rect></g><g transform="translate(-54,-10) scale(1,1)"><path fill="none" stroke="#000000" d="M 584 376 L 743 376 L 743 420 L 584 420 L 584 376 Z Z" stroke-miterlimit="10"></path></g><g transform="translate(-54,-10) scale(1,1)"><path fill="none" stroke="#000000" d="M 584 401 L 743 401" stroke-miterlimit="10"></path></g><g transform="translate(-54,-10) scale(1,1)"><path fill="none" stroke="#000000" d="M 584 411 L 743 411" stroke-miterlimit="10"></path></g><g transform="translate(-54,-10) scale(1,1)"><g><path fill="none" stroke="none"></path><text fill="#000000" stroke="none" font-family="Arial" font-size="13px" font-style="normal" font-weight="bold" text-decoration="none" x="600.5" y="395.5">android.app.Activity</text></g></g><g transform="translate(-54,-10) scale(1,1)"><rect fill="#ffffff" stroke="none" x="64" y="348" width="418" height="87"></rect></g><g transform="translate(-54,-10) scale(1,1)"><path fill="none" stroke="#000000" d="M 64 348 L 482 348 L 482 435 L 64 435 L 64 348 Z Z" stroke-miterlimit="10"></path></g><g transform="translate(-54,-10) scale(1,1)"><path fill="none" stroke="#000000" d="M 64 373 L 482 373" stroke-miterlimit="10"></path></g><g transform="translate(-54,-10) scale(1,1)"><path fill="none" stroke="#000000" d="M 64 383 L 482 383" stroke-miterlimit="10"></path></g><g transform="translate(-54,-10) scale(1,1)"><g><path fill="none" stroke="none"></path><text fill="#000000" stroke="none" font-family="Arial" font-size="13px" font-style="normal" font-weight="bold" text-decoration="none" x="234" y="367.5">ScanActivity</text></g></g><g transform="translate(-54,-10) scale(1,1)"><g><path fill="none" stroke="none"></path><text fill="#000000" stroke="none" font-family="Arial" font-size="13px" font-style="normal" font-weight="normal" text-decoration="none" x="69" y="400.5">+onCreate(): void</text></g></g><g transform="translate(-54,-10) scale(1,1)"><g><path fill="none" stroke="none"></path><text fill="#000000" stroke="none" font-family="Arial" font-size="13px" font-style="normal" font-weight="normal" text-decoration="none" x="69" y="415.5">+onResume(): void</text></g></g><g transform="translate(-54,-10) scale(1,1)"><g><path fill="none" stroke="none"></path><text fill="#000000" stroke="none" font-family="Arial" font-size="13px" font-style="normal" font-weight="normal" text-decoration="none" x="69" y="430.5">+onActivityResult(reqCode: int, resCode: int, intent: Intent): void</text></g></g><g transform="translate(-54,-10) scale(1,1)"><path fill="none" stroke="#000000" d="M 482 396 L 584 396" stroke-miterlimit="10"></path></g><g transform="translate(-54,-10) scale(1,1)"><path fill="#FFFFFF" stroke="none" d="M 563.6746502847517 404.419035512032 L 584 396 L 563.6746502847517 387.580964487968"></path></g><g transform="translate(-54,-10) scale(1,1)"><path fill="none" stroke="#000000" d="M 563.6746502847517 404.419035512032 L 584 396 L 563.6746502847517 387.580964487968 L 563.6746502847517 404.419035512032" stroke-miterlimit="10"></path></g><g transform="translate(-54,-10) scale(1,1)"><rect fill="#ffffff" stroke="none" x="544" y="196" width="262" height="112"></rect></g><g transform="translate(-54,-10) scale(1,1)"><path fill="none" stroke="#000000" d="M 544 196 L 806 196 L 806 308 L 544 308 L 544 196 Z Z" stroke-miterlimit="10"></path></g><g transform="translate(-54,-10) scale(1,1)"><path fill="none" stroke="#000000" d="M 544 221 L 806 221" stroke-miterlimit="10"></path></g><g transform="translate(-54,-10) scale(1,1)"><path fill="none" stroke="#000000" d="M 544 231 L 806 231" stroke-miterlimit="10"></path></g><g transform="translate(-54,-10) scale(1,1)"><g><path fill="none" stroke="none"></path><text fill="#000000" stroke="none" font-family="Arial" font-size="13px" font-style="normal" font-weight="bold" text-decoration="none" x="637" y="215.5">MainActivity</text></g></g><g transform="translate(-54,-10) scale(1,1)"><g><path fill="none" stroke="none"></path><text fill="#000000" stroke="none" font-family="Arial" font-size="13px" font-style="normal" font-weight="normal" text-decoration="none" x="549" y="248.5">+onCreate(): void</text></g></g><g transform="translate(-54,-10) scale(1,1)"><g><path fill="none" stroke="none"></path><text fill="#000000" stroke="none" font-family="Arial" font-size="13px" font-style="normal" font-weight="normal" text-decoration="none" x="549" y="263.5">+onResume(): void</text></g></g><g transform="translate(-54,-10) scale(1,1)"><g><path fill="none" stroke="none"></path><text fill="#000000" stroke="none" font-family="Arial" font-size="13px" font-style="normal" font-weight="normal" text-decoration="none" x="549" y="278.5">+onDestroy(): void</text></g></g><g transform="translate(-54,-10) scale(1,1)"><g><path fill="none" stroke="none"></path><text fill="#000000" stroke="none" font-family="Arial" font-size="13px" font-style="normal" font-weight="normal" text-decoration="none" x="549" y="293.5">+onPause(): void</text></g></g><g transform="translate(-54,-10) scale(1,1)"><path fill="none" stroke="#000000" d="M 648 308 L 648 376" stroke-miterlimit="10"></path></g><g transform="translate(-54,-10) scale(1,1)"><path fill="#FFFFFF" stroke="none" d="M 639.580964487968 355.6746502847517 L 648 376 L 656.419035512032 355.6746502847517"></path></g><g transform="translate(-54,-10) scale(1,1)"><path fill="none" stroke="#000000" d="M 639.580964487968 355.6746502847517 L 648 376 L 656.419035512032 355.6746502847517 L 639.580964487968 355.6746502847517" stroke-miterlimit="10"></path></g><g transform="translate(-54,-10) scale(1,1)"><rect fill="#ffffff" stroke="none" x="240" y="148" width="318" height="44"></rect></g><g transform="translate(-54,-10) scale(1,1)"><path fill="none" stroke="#000000" d="M 240 148 L 558 148 L 558 192 L 240 192 L 240 148 Z Z" stroke-miterlimit="10"></path></g><g transform="translate(-54,-10) scale(1,1)"><path fill="none" stroke="#000000" d="M 240 173 L 558 173" stroke-miterlimit="10"></path></g><g transform="translate(-54,-10) scale(1,1)"><path fill="none" stroke="#000000" d="M 240 183 L 558 183" stroke-miterlimit="10"></path></g><g transform="translate(-54,-10) scale(1,1)"><g><path fill="none" stroke="none"></path><text fill="#000000" stroke="none" font-family="Arial" font-size="13px" font-style="normal" font-weight="bold" text-decoration="none" x="268" y="167.5">zxing.integration.android.IntentIntegrator</text></g></g><g transform="translate(-54,-10) scale(1,1)"><path fill="none" stroke="#000000" d="M 364 192 L 364 348" stroke-miterlimit="10"></path></g><g transform="translate(-54,-10) scale(1,1)"><path fill="none" stroke="#000000" d="M 359.790482243984 337.83732514237585 L 364 348 L 368.209517756016 337.83732514237585" stroke-miterlimit="10"></path></g><g transform="translate(-54,-10) scale(1,1)"><rect fill="#ffffff" stroke="none" x="72" y="240" width="290" height="44"></rect></g><g transform="translate(-54,-10) scale(1,1)"><path fill="none" stroke="#000000" d="M 72 240 L 362 240 L 362 284 L 72 284 L 72 240 Z Z" stroke-miterlimit="10"></path></g><g transform="translate(-54,-10) scale(1,1)"><path fill="none" stroke="#000000" d="M 72 265 L 362 265" stroke-miterlimit="10"></path></g><g transform="translate(-54,-10) scale(1,1)"><path fill="none" stroke="#000000" d="M 72 275 L 362 275" stroke-miterlimit="10"></path></g><g transform="translate(-54,-10) scale(1,1)"><g><path fill="none" stroke="none"></path><text fill="#000000" stroke="none" font-family="Arial" font-size="13px" font-style="normal" font-weight="bold" text-decoration="none" x="98" y="259.5">zxing.integration.android.IntentResult</text></g></g><g transform="translate(-54,-10) scale(1,1)"><path fill="none" stroke="#000000" d="M 180 284 L 180 348" stroke-miterlimit="10"></path></g><g transform="translate(-54,-10) scale(1,1)"><path fill="none" stroke="#000000" d="M 175.790482243984 337.83732514237585 L 180 348 L 184.209517756016 337.83732514237585" stroke-miterlimit="10"></path></g><g transform="translate(-54,-10) scale(1,1)"><path fill="none" stroke="#000000" d="M 544 244 L 416 244 L 416 348" stroke-miterlimit="10"></path></g><g transform="translate(-54,-10) scale(1,1)"><rect fill="#C0C0C0" stroke="none" x="1003" y="495" width="93" height="44" opacity="0.2"></rect></g><g transform="translate(-54,-10) scale(1,1)"><rect fill="#ffffff" stroke="none" x="996" y="488" width="93" height="44"></rect></g><g transform="translate(-54,-10) scale(1,1)"><path fill="none" stroke="#000000" d="M 996 488 L 1089 488 L 1089 532 L 996 532 L 996 488 Z Z" stroke-miterlimit="10"></path></g><g transform="translate(-54,-10) scale(1,1)"><path fill="none" stroke="#000000" d="M 996 513 L 1089 513" stroke-miterlimit="10"></path></g><g transform="translate(-54,-10) scale(1,1)"><path fill="none" stroke="#000000" d="M 996 523 L 1089 523" stroke-miterlimit="10"></path></g><g transform="translate(-54,-10) scale(1,1)"><g><path fill="none" stroke="none"></path><text fill="#000000" stroke="none" font-family="Arial" font-size="13px" font-style="normal" font-weight="bold" text-decoration="none" x="1006.5" y="507.5">GetProduct</text></g></g><g transform="translate(-54,-10) scale(1,1)"><rect fill="#C0C0C0" stroke="none" x="1115" y="371" width="98" height="44" opacity="0.2"></rect></g><g transform="translate(-54,-10) scale(1,1)"><rect fill="#ffffff" stroke="none" x="1108" y="364" width="98" height="44"></rect></g><g transform="translate(-54,-10) scale(1,1)"><path fill="none" stroke="#000000" d="M 1108 364 L 1206 364 L 1206 408 L 1108 408 L 1108 364 Z Z" stroke-miterlimit="10"></path></g><g transform="translate(-54,-10) scale(1,1)"><path fill="none" stroke="#000000" d="M 1108 389 L 1206 389" stroke-miterlimit="10"></path></g><g transform="translate(-54,-10) scale(1,1)"><path fill="none" stroke="#000000" d="M 1108 399 L 1206 399" stroke-miterlimit="10"></path></g><g transform="translate(-54,-10) scale(1,1)"><g><path fill="none" stroke="none"></path><text fill="#000000" stroke="none" font-family="Arial" font-size="13px" font-style="normal" font-weight="bold" text-decoration="none" x="1118" y="383.5">PostSession</text></g></g><g transform="translate(-54,-10) scale(1,1)"><rect fill="#C0C0C0" stroke="none" x="1307" y="487" width="302" height="72" opacity="0.2"></rect></g><g transform="translate(-54,-10) scale(1,1)"><rect fill="#C0C0C0" stroke="none" x="1571" y="439" width="47" height="52" opacity="0.2"></rect></g><g transform="translate(-54,-10) scale(1,1)"><rect fill="#ffffff" stroke="none" x="1300" y="480" width="302" height="72"></rect></g><g transform="translate(-54,-10) scale(1,1)"><path fill="none" stroke="#000000" d="M 1300 480 L 1602 480 L 1602 552 L 1300 552 L 1300 480 Z Z" stroke-miterlimit="10"></path></g><g transform="translate(-54,-10) scale(1,1)"><path fill="none" stroke="#000000" d="M 1300 505 L 1602 505" stroke-miterlimit="10"></path></g><g transform="translate(-54,-10) scale(1,1)"><path fill="none" stroke="#000000" d="M 1300 515 L 1602 515" stroke-miterlimit="10"></path></g><g transform="translate(-54,-10) scale(1,1)"><g><path fill="none" stroke="none"></path><text fill="#000000" stroke="none" font-family="Arial" font-size="13px" font-style="normal" font-weight="bold" text-decoration="none" x="1417.5" y="499.5">AsyncTask</text></g></g><g transform="translate(-54,-10) scale(1,1)"><g><path fill="none" stroke="none"></path><text fill="#000000" stroke="none" font-family="Arial" font-size="13px" font-style="normal" font-weight="normal" text-decoration="none" x="1305" y="532.5">#doInBackground(String... params): String</text></g></g><g transform="translate(-54,-10) scale(1,1)"><g><path fill="none" stroke="none"></path><text fill="#000000" stroke="none" font-family="Arial" font-size="13px" font-style="normal" font-weight="normal" text-decoration="none" x="1305" y="547.5">#onPostExecute(String result): void</text></g></g><g transform="translate(-54,-10) scale(1,1)"><rect fill="#ffffff" stroke="none" x="1564" y="432" width="47" height="52"></rect></g><g transform="translate(-54,-10) scale(1,1)"><path fill="none" stroke="#000000" d="M 1564 432 L 1611 432 L 1611 484 L 1564 484 L 1564 432 Z Z" stroke-miterlimit="10" stroke-dasharray="3"></path></g><g transform="translate(-54,-10) scale(1,1)"><g><path fill="none" stroke="none"></path><text fill="#000000" stroke="none" font-family="Arial" font-size="13px" font-style="normal" font-weight="normal" text-decoration="none" x="1569" y="449.5">String</text></g></g><g transform="translate(-54,-10) scale(1,1)"><g><path fill="none" stroke="none"></path><text fill="#000000" stroke="none" font-family="Arial" font-size="13px" font-style="normal" font-weight="normal" text-decoration="none" x="1569" y="464.5">Void</text></g></g><g transform="translate(-54,-10) scale(1,1)"><g><path fill="none" stroke="none"></path><text fill="#000000" stroke="none" font-family="Arial" font-size="13px" font-style="normal" font-weight="normal" text-decoration="none" x="1569" y="479.5">String</text></g></g><g transform="translate(-54,-10) scale(1,1)"><path fill="none" stroke="#000000" d="M 1089 524 L 1300 524" stroke-miterlimit="10"></path></g><g transform="translate(-54,-10) scale(1,1)"><path fill="#FFFFFF" stroke="none" d="M 1279.6746502847518 532.419035512032 L 1300 524 L 1279.6746502847516 515.580964487968"></path></g><g transform="translate(-54,-10) scale(1,1)"><path fill="none" stroke="#000000" d="M 1279.6746502847518 532.419035512032 L 1300 524 L 1279.6746502847516 515.580964487968 L 1279.6746502847518 532.419035512032" stroke-miterlimit="10"></path></g><g transform="translate(-54,-10) scale(1,1)"><path fill="none" stroke="#000000" d="M 1150 408 L 1150 524 L 1300 524" stroke-miterlimit="10"></path></g><g transform="translate(-54,-10) scale(1,1)"><path fill="#FFFFFF" stroke="none" d="M 1279.6746502847518 532.419035512032 L 1300 524 L 1279.6746502847516 515.580964487968"></path></g><g transform="translate(-54,-10) scale(1,1)"><path fill="none" stroke="#000000" d="M 1279.6746502847518 532.419035512032 L 1300 524 L 1279.6746502847516 515.580964487968 L 1279.6746502847518 532.419035512032" stroke-miterlimit="10"></path></g><g transform="translate(-54,-10) scale(1,1)"><path fill="none" stroke="#000000" d="M 996 516 L 984 516 L 984 260 L 806 260" stroke-miterlimit="10"></path></g><g transform="translate(-54,-10) scale(1,1)"><path fill="none" stroke="#000000" d="M 1108 386 L 984 386 L 984 260 L 806 260" stroke-miterlimit="10"></path></g><g transform="translate(-54,-10) scale(1,1)"><rect fill="#C0C0C0" stroke="none" x="1079" y="167" width="330" height="117" opacity="0.2"></rect></g><g transform="translate(-54,-10) scale(1,1)"><rect fill="#ffffff" stroke="none" x="1072" y="160" width="330" height="117"></rect></g><g transform="translate(-54,-10) scale(1,1)"><path fill="none" stroke="#000000" d="M 1072 160 L 1402 160 L 1402 277 L 1072 277 L 1072 160 Z Z" stroke-miterlimit="10"></path></g><g transform="translate(-54,-10) scale(1,1)"><path fill="none" stroke="#000000" d="M 1072 185 L 1402 185" stroke-miterlimit="10"></path></g><g transform="translate(-54,-10) scale(1,1)"><path fill="none" stroke="#000000" d="M 1072 195 L 1402 195" stroke-miterlimit="10"></path></g><g transform="translate(-54,-10) scale(1,1)"><g><path fill="none" stroke="none"></path><text fill="#000000" stroke="none" font-family="Arial" font-size="13px" font-style="normal" font-weight="bold" text-decoration="none" x="1218" y="179.5">Token</text></g></g><g transform="translate(-54,-10) scale(1,1)"><g><path fill="none" stroke="none"></path><text fill="#000000" stroke="none" font-family="Arial" font-size="13px" font-style="normal" font-weight="normal" text-decoration="none" x="1077" y="212.5">+Token()</text></g></g><g transform="translate(-54,-10) scale(1,1)"><g><path fill="none" stroke="none"></path><text fill="#000000" stroke="none" font-family="Arial" font-size="13px" font-style="normal" font-weight="normal" text-decoration="none" x="1077" y="227.5">+createToken(String arg0, Context ctr): void</text></g></g><g transform="translate(-54,-10) scale(1,1)"><g><path fill="none" stroke="none"></path><text fill="#000000" stroke="none" font-family="Arial" font-size="13px" font-style="normal" font-weight="normal" text-decoration="none" x="1077" y="242.5">+readToken(Context ctr): String</text></g></g><g transform="translate(-54,-10) scale(1,1)"><g><path fill="none" stroke="none"></path><text fill="#000000" stroke="none" font-family="Arial" font-size="13px" font-style="normal" font-weight="normal" text-decoration="none" x="1077" y="257.5">+fileExistance(String fname, Context ctr): boolean</text></g></g><g transform="translate(-54,-10) scale(1,1)"><g><path fill="none" stroke="none"></path><text fill="#000000" stroke="none" font-family="Arial" font-size="13px" font-style="normal" font-weight="normal" text-decoration="none" x="1077" y="272.5">+delete(Context ctr): boolean</text></g></g><g transform="translate(-54,-10) scale(1,1)"><path fill="none" stroke="#000000" d="M 806 244 L 1072 244" stroke-miterlimit="10"></path></g><g transform="translate(-54,-10) scale(1,1)"><path fill="#FFFFFF" stroke="none" d="M 1061.837325142376 248.209517756016 L 1072 244 L 1061.837325142376 239.790482243984 L 1050 244"></path></g><g transform="translate(-54,-10) scale(1,1)"><path fill="none" stroke="#000000" d="M 1061.837325142376 248.209517756016 L 1072 244 L 1061.837325142376 239.790482243984 L 1050 244 L 1061.837325142376 248.209517756016" stroke-miterlimit="10"></path></g></g></svg>