<svg version="1.1" xmlns="http://www.w3.org/2000/svg" xmlns:xlink="http://www.w3.org/1999/xlink" width="1365" height="626"><defs></defs><g><g transform="translate(-50,-58) scale(1,1)"><rect fill="#ffffff" stroke="none" x="60" y="68" width="338" height="280"></rect></g><g transform="translate(-50,-58) scale(1,1)"><path fill="none" stroke="#000000" d="M 60 68 L 398 68 L 398 348 L 60 348 L 60 68 Z Z" stroke-miterlimit="10"></path></g><g transform="translate(-50,-58) scale(1,1)"><path fill="none" stroke="#000000" d="M 60 93 L 398 93" stroke-miterlimit="10"></path></g><g transform="translate(-50,-58) scale(1,1)"><path fill="none" stroke="#000000" d="M 60 161 L 398 161" stroke-miterlimit="10"></path></g><g transform="translate(-50,-58) scale(1,1)"><g><path fill="none" stroke="none"></path><text fill="#000000" stroke="none" font-family="Arial" font-size="13px" font-style="normal" font-weight="bold" text-decoration="none" x="215.5" y="87.5">User</text></g></g><g transform="translate(-50,-58) scale(1,1)"><g><path fill="none" stroke="none"></path><text fill="#000000" stroke="none" font-family="Arial" font-size="13px" font-style="normal" font-weight="normal" text-decoration="none" x="65" y="110.5">-id: int {unique}</text></g></g><g transform="translate(-50,-58) scale(1,1)"><g><path fill="none" stroke="none"></path><text fill="#000000" stroke="none" font-family="Arial" font-size="13px" font-style="normal" font-weight="normal" text-decoration="none" x="65" y="125.5">-email: string {unique}</text></g></g><g transform="translate(-50,-58) scale(1,1)"><g><path fill="none" stroke="none"></path><text fill="#000000" stroke="none" font-family="Arial" font-size="13px" font-style="normal" font-weight="normal" text-decoration="none" x="65" y="140.5">-hash: string</text></g></g><g transform="translate(-50,-58) scale(1,1)"><g><path fill="none" stroke="none"></path><text fill="#000000" stroke="none" font-family="Arial" font-size="13px" font-style="normal" font-weight="normal" text-decoration="none" x="65" y="155.5">-blacklist: Ingredient[0..*]</text></g></g><g transform="translate(-50,-58) scale(1,1)"><g><path fill="none" stroke="none"></path><text fill="#000000" stroke="none" font-family="Arial" font-size="13px" font-style="normal" font-weight="normal" text-decoration="none" x="65" y="178.5">+create(email: string, password: string): User</text><path fill="none" stroke="#000000" d="M 65 178.5 L 326 178.5" stroke-miterlimit="10"></path></g></g><g transform="translate(-50,-58) scale(1,1)"><g><path fill="none" stroke="none"></path><text fill="#000000" stroke="none" font-family="Arial" font-size="13px" font-style="normal" font-weight="normal" text-decoration="none" x="65" y="193.5">+get_by_id(id: int): User</text><path fill="none" stroke="#000000" d="M 65 193.5 L 204 193.5" stroke-miterlimit="10"></path></g></g><g transform="translate(-50,-58) scale(1,1)"><g><path fill="none" stroke="none"></path><text fill="#000000" stroke="none" font-family="Arial" font-size="13px" font-style="normal" font-weight="normal" text-decoration="none" x="65" y="208.5">+get_by_email(email: string): User</text><path fill="none" stroke="#000000" d="M 65 208.5 L 264 208.5" stroke-miterlimit="10"></path></g></g><g transform="translate(-50,-58) scale(1,1)"><g><path fill="none" stroke="none"></path><text fill="#000000" stroke="none" font-family="Arial" font-size="13px" font-style="normal" font-weight="normal" text-decoration="none" x="65" y="223.5">+__construct(id: int, email: string, password: string)</text></g></g><g transform="translate(-50,-58) scale(1,1)"><g><path fill="none" stroke="none"></path><text fill="#000000" stroke="none" font-family="Arial" font-size="13px" font-style="normal" font-weight="normal" text-decoration="none" x="65" y="238.5">+get_id(): int</text></g></g><g transform="translate(-50,-58) scale(1,1)"><g><path fill="none" stroke="none"></path><text fill="#000000" stroke="none" font-family="Arial" font-size="13px" font-style="normal" font-weight="normal" text-decoration="none" x="65" y="253.5">+get_email(): string</text></g></g><g transform="translate(-50,-58) scale(1,1)"><g><path fill="none" stroke="none"></path><text fill="#000000" stroke="none" font-family="Arial" font-size="13px" font-style="normal" font-weight="normal" text-decoration="none" x="65" y="268.5">+check_password(password: string): boolean</text></g></g><g transform="translate(-50,-58) scale(1,1)"><g><path fill="none" stroke="none"></path><text fill="#000000" stroke="none" font-family="Arial" font-size="13px" font-style="normal" font-weight="normal" text-decoration="none" x="65" y="283.5">+set_email(email: string): boolean</text></g></g><g transform="translate(-50,-58) scale(1,1)"><g><path fill="none" stroke="none"></path><text fill="#000000" stroke="none" font-family="Arial" font-size="13px" font-style="normal" font-weight="normal" text-decoration="none" x="65" y="298.5">+set_password(password: string): boolean</text></g></g><g transform="translate(-50,-58) scale(1,1)"><g><path fill="none" stroke="none"></path><text fill="#000000" stroke="none" font-family="Arial" font-size="13px" font-style="normal" font-weight="normal" text-decoration="none" x="65" y="313.5">+get_blacklist(): Ingredient</text></g></g><g transform="translate(-50,-58) scale(1,1)"><g><path fill="none" stroke="none"></path><text fill="#000000" stroke="none" font-family="Arial" font-size="13px" font-style="normal" font-weight="normal" text-decoration="none" x="65" y="328.5">+add_to_blacklist(item_id: int): boolean</text></g></g><g transform="translate(-50,-58) scale(1,1)"><g><path fill="none" stroke="none"></path><text fill="#000000" stroke="none" font-family="Arial" font-size="13px" font-style="normal" font-weight="normal" text-decoration="none" x="65" y="343.5">+rm_from_blacklist(item_id: int): boolean</text></g></g><g transform="translate(-50,-58) scale(1,1)"><rect fill="#ffffff" stroke="none" x="568" y="452" width="303" height="190"></rect></g><g transform="translate(-50,-58) scale(1,1)"><path fill="none" stroke="#000000" d="M 568 452 L 871 452 L 871 642 L 568 642 L 568 452 Z Z" stroke-miterlimit="10"></path></g><g transform="translate(-50,-58) scale(1,1)"><path fill="none" stroke="#000000" d="M 568 477 L 871 477" stroke-miterlimit="10"></path></g><g transform="translate(-50,-58) scale(1,1)"><path fill="none" stroke="#000000" d="M 568 515 L 871 515" stroke-miterlimit="10"></path></g><g transform="translate(-50,-58) scale(1,1)"><g><path fill="none" stroke="none"></path><text fill="#000000" stroke="none" font-family="Arial" font-size="13px" font-style="normal" font-weight="bold" text-decoration="none" x="691" y="471.5">Ingredient</text></g></g><g transform="translate(-50,-58) scale(1,1)"><g><path fill="none" stroke="none"></path><text fill="#000000" stroke="none" font-family="Arial" font-size="13px" font-style="normal" font-weight="normal" text-decoration="none" x="573" y="494.5">-id: int {unique}</text></g></g><g transform="translate(-50,-58) scale(1,1)"><g><path fill="none" stroke="none"></path><text fill="#000000" stroke="none" font-family="Arial" font-size="13px" font-style="normal" font-weight="normal" text-decoration="none" x="573" y="509.5">-name: string</text></g></g><g transform="translate(-50,-58) scale(1,1)"><g><path fill="none" stroke="none"></path><text fill="#000000" stroke="none" font-family="Arial" font-size="13px" font-style="normal" font-weight="normal" text-decoration="none" x="573" y="532.5">+get_by_id(id: int): Ingredient</text><path fill="none" stroke="#000000" d="M 573 532.5 L 742 532.5" stroke-miterlimit="10"></path></g></g><g transform="translate(-50,-58) scale(1,1)"><g><path fill="none" stroke="none"></path><text fill="#000000" stroke="none" font-family="Arial" font-size="13px" font-style="normal" font-weight="normal" text-decoration="none" x="573" y="547.5">+get_by_name(name: string): Ingredient[0..*]</text><path fill="none" stroke="#000000" d="M 573 547.5 L 832 547.5" stroke-miterlimit="10"></path></g></g><g transform="translate(-50,-58) scale(1,1)"><g><path fill="none" stroke="none"></path><text fill="#000000" stroke="none" font-family="Arial" font-size="13px" font-style="normal" font-weight="normal" text-decoration="none" x="573" y="562.5">+create(name: string): Ingredient</text><path fill="none" stroke="#000000" d="M 573 562.5 L 762 562.5" stroke-miterlimit="10"></path></g></g><g transform="translate(-50,-58) scale(1,1)"><g><path fill="none" stroke="none"></path><text fill="#000000" stroke="none" font-family="Arial" font-size="13px" font-style="normal" font-weight="normal" text-decoration="none" x="573" y="577.5">+__construct(id: int, name: string)</text></g></g><g transform="translate(-50,-58) scale(1,1)"><g><path fill="none" stroke="none"></path><text fill="#000000" stroke="none" font-family="Arial" font-size="13px" font-style="normal" font-weight="normal" text-decoration="none" x="573" y="592.5">+get_id(): int</text></g></g><g transform="translate(-50,-58) scale(1,1)"><g><path fill="none" stroke="none"></path><text fill="#000000" stroke="none" font-family="Arial" font-size="13px" font-style="normal" font-weight="normal" text-decoration="none" x="573" y="607.5">+get_name(): string</text></g></g><g transform="translate(-50,-58) scale(1,1)"><g><path fill="none" stroke="none"></path><text fill="#000000" stroke="none" font-family="Arial" font-size="13px" font-style="normal" font-weight="normal" text-decoration="none" x="573" y="622.5">+set_name(name: string): boolean</text></g></g><g transform="translate(-50,-58) scale(1,1)"><g><path fill="none" stroke="none"></path><text fill="#000000" stroke="none" font-family="Arial" font-size="13px" font-style="normal" font-weight="normal" text-decoration="none" x="573" y="637.5">+get_categories(): Category[0..*]</text></g></g><g transform="translate(-50,-58) scale(1,1)"><rect fill="#ffffff" stroke="none" x="68" y="424" width="320" height="250"></rect></g><g transform="translate(-50,-58) scale(1,1)"><path fill="none" stroke="#000000" d="M 68 424 L 388 424 L 388 674 L 68 674 L 68 424 Z Z" stroke-miterlimit="10"></path></g><g transform="translate(-50,-58) scale(1,1)"><path fill="none" stroke="#000000" d="M 68 449 L 388 449" stroke-miterlimit="10"></path></g><g transform="translate(-50,-58) scale(1,1)"><path fill="none" stroke="#000000" d="M 68 502 L 388 502" stroke-miterlimit="10"></path></g><g transform="translate(-50,-58) scale(1,1)"><g><path fill="none" stroke="none"></path><text fill="#000000" stroke="none" font-family="Arial" font-size="13px" font-style="normal" font-weight="bold" text-decoration="none" x="205.5" y="443.5">Product</text></g></g><g transform="translate(-50,-58) scale(1,1)"><g><path fill="none" stroke="none"></path><text fill="#000000" stroke="none" font-family="Arial" font-size="13px" font-style="normal" font-weight="normal" text-decoration="none" x="73" y="466.5">-ean: int {unique}</text></g></g><g transform="translate(-50,-58) scale(1,1)"><g><path fill="none" stroke="none"></path><text fill="#000000" stroke="none" font-family="Arial" font-size="13px" font-style="normal" font-weight="normal" text-decoration="none" x="73" y="481.5">-name: string</text></g></g><g transform="translate(-50,-58) scale(1,1)"><g><path fill="none" stroke="none"></path><text fill="#000000" stroke="none" font-family="Arial" font-size="13px" font-style="normal" font-weight="normal" text-decoration="none" x="73" y="496.5">-ingredients: Ingredient[1..*]</text></g></g><g transform="translate(-50,-58) scale(1,1)"><g><path fill="none" stroke="none"></path><text fill="#000000" stroke="none" font-family="Arial" font-size="13px" font-style="normal" font-weight="normal" text-decoration="none" x="73" y="519.5">+create(ean: int, name: string): Product</text><path fill="none" stroke="#000000" d="M 73 519.5 L 301 519.5" stroke-miterlimit="10"></path></g></g><g transform="translate(-50,-58) scale(1,1)"><g><path fill="none" stroke="none"></path><text fill="#000000" stroke="none" font-family="Arial" font-size="13px" font-style="normal" font-weight="normal" text-decoration="none" x="73" y="534.5">+get_by_id(id: int): Product</text><path fill="none" stroke="#000000" d="M 73 534.5 L 230 534.5" stroke-miterlimit="10"></path></g></g><g transform="translate(-50,-58) scale(1,1)"><g><path fill="none" stroke="none"></path><text fill="#000000" stroke="none" font-family="Arial" font-size="13px" font-style="normal" font-weight="normal" text-decoration="none" x="73" y="549.5">+get_by_name(): Product[0..*]</text><path fill="none" stroke="#000000" d="M 73 549.5 L 248 549.5" stroke-miterlimit="10"></path></g></g><g transform="translate(-50,-58) scale(1,1)"><g><path fill="none" stroke="none"></path><text fill="#000000" stroke="none" font-family="Arial" font-size="13px" font-style="normal" font-weight="normal" text-decoration="none" x="73" y="564.5">+__construct(id: int, name: string)</text></g></g><g transform="translate(-50,-58) scale(1,1)"><g><path fill="none" stroke="none"></path><text fill="#000000" stroke="none" font-family="Arial" font-size="13px" font-style="normal" font-weight="normal" text-decoration="none" x="73" y="579.5">+get_id(): int</text></g></g><g transform="translate(-50,-58) scale(1,1)"><g><path fill="none" stroke="none"></path><text fill="#000000" stroke="none" font-family="Arial" font-size="13px" font-style="normal" font-weight="normal" text-decoration="none" x="73" y="594.5">+get_name(): string</text></g></g><g transform="translate(-50,-58) scale(1,1)"><g><path fill="none" stroke="none"></path><text fill="#000000" stroke="none" font-family="Arial" font-size="13px" font-style="normal" font-weight="normal" text-decoration="none" x="73" y="609.5">+set_name(name: string): boolean</text></g></g><g transform="translate(-50,-58) scale(1,1)"><g><path fill="none" stroke="none"></path><text fill="#000000" stroke="none" font-family="Arial" font-size="13px" font-style="normal" font-weight="normal" text-decoration="none" x="73" y="624.5">+get_ingredients(): Ingredient[1..*]</text></g></g><g transform="translate(-50,-58) scale(1,1)"><g><path fill="none" stroke="none"></path><text fill="#000000" stroke="none" font-family="Arial" font-size="13px" font-style="normal" font-weight="normal" text-decoration="none" x="73" y="639.5">+add_ingredient(ingredient: Ingredient): boolean</text></g></g><g transform="translate(-50,-58) scale(1,1)"><g><path fill="none" stroke="none"></path><text fill="#000000" stroke="none" font-family="Arial" font-size="13px" font-style="normal" font-weight="normal" text-decoration="none" x="73" y="654.5">+rm_ingredient(ingredient: Ingredient): boolean</text></g></g><g transform="translate(-50,-58) scale(1,1)"><g><path fill="none" stroke="none"></path><text fill="#000000" stroke="none" font-family="Arial" font-size="13px" font-style="normal" font-weight="normal" text-decoration="none" x="73" y="669.5">+is_edible(user_id: int)</text></g></g><g transform="translate(-50,-58) scale(1,1)"><rect fill="#ffffff" stroke="none" x="516" y="72" width="544" height="280"></rect></g><g transform="translate(-50,-58) scale(1,1)"><path fill="none" stroke="#000000" d="M 516 72 L 1060 72 L 1060 352 L 516 352 L 516 72 Z Z" stroke-miterlimit="10"></path></g><g transform="translate(-50,-58) scale(1,1)"><path fill="none" stroke="#000000" d="M 516 97 L 1060 97" stroke-miterlimit="10"></path></g><g transform="translate(-50,-58) scale(1,1)"><path fill="none" stroke="#000000" d="M 516 150 L 1060 150" stroke-miterlimit="10"></path></g><g transform="translate(-50,-58) scale(1,1)"><g><path fill="none" stroke="none"></path><text fill="#000000" stroke="none" font-family="Arial" font-size="13px" font-style="normal" font-weight="bold" text-decoration="none" x="764.5" y="91.5">Session</text></g></g><g transform="translate(-50,-58) scale(1,1)"><g><path fill="none" stroke="none"></path><text fill="#000000" stroke="none" font-family="Arial" font-size="13px" font-style="normal" font-weight="normal" text-decoration="none" x="521" y="114.5">-token: string</text></g></g><g transform="translate(-50,-58) scale(1,1)"><g><path fill="none" stroke="none"></path><text fill="#000000" stroke="none" font-family="Arial" font-size="13px" font-style="normal" font-weight="normal" text-decoration="none" x="521" y="129.5">-user: User</text></g></g><g transform="translate(-50,-58) scale(1,1)"><g><path fill="none" stroke="none"></path><text fill="#000000" stroke="none" font-family="Arial" font-size="13px" font-style="normal" font-weight="normal" text-decoration="none" x="521" y="144.5">-admin: boolean</text></g></g><g transform="translate(-50,-58) scale(1,1)"><g><path fill="none" stroke="none"></path><text fill="#000000" stroke="none" font-family="Arial" font-size="13px" font-style="normal" font-weight="normal" text-decoration="none" x="521" y="167.5">+is_token(token: string): boolean</text><path fill="none" stroke="#000000" d="M 521 167.5 L 711 167.5" stroke-miterlimit="10"></path></g></g><g transform="translate(-50,-58) scale(1,1)"><g><path fill="none" stroke="none"></path><text fill="#000000" stroke="none" font-family="Arial" font-size="13px" font-style="normal" font-weight="normal" text-decoration="none" x="521" y="182.5">+get_by_token(token: string): Session</text><path fill="none" stroke="#000000" d="M 521 182.5 L 742 182.5" stroke-miterlimit="10"></path></g></g><g transform="translate(-50,-58) scale(1,1)"><g><path fill="none" stroke="none"></path><text fill="#000000" stroke="none" font-family="Arial" font-size="13px" font-style="normal" font-weight="normal" text-decoration="none" x="521" y="197.5">+get_by_login(email: string, password: string): Session</text><path fill="none" stroke="#000000" d="M 521 197.5 L 839 197.5" stroke-miterlimit="10"></path></g></g><g transform="translate(-50,-58) scale(1,1)"><g><path fill="none" stroke="none"></path><text fill="#000000" stroke="none" font-family="Arial" font-size="13px" font-style="normal" font-weight="normal" text-decoration="none" x="521" y="212.5">+get_by_barcode(barcode: int): Session</text><path fill="none" stroke="#000000" d="M 521 212.5 L 752 212.5" stroke-miterlimit="10"></path></g></g><g transform="translate(-50,-58) scale(1,1)"><g><path fill="none" stroke="none"></path><text fill="#000000" stroke="none" font-family="Arial" font-size="13px" font-style="normal" font-weight="normal" text-decoration="none" x="521" y="227.5">+__construct(token: string, user: User, admin: boolean, valid: integer, name: string)</text></g></g><g transform="translate(-50,-58) scale(1,1)"><g><path fill="none" stroke="none"></path><text fill="#000000" stroke="none" font-family="Arial" font-size="13px" font-style="normal" font-weight="normal" text-decoration="none" x="521" y="242.5">+destroy(): boolean</text></g></g><g transform="translate(-50,-58) scale(1,1)"><g><path fill="none" stroke="none"></path><text fill="#000000" stroke="none" font-family="Arial" font-size="13px" font-style="normal" font-weight="normal" text-decoration="none" x="521" y="257.5">+get_user(): User</text></g></g><g transform="translate(-50,-58) scale(1,1)"><g><path fill="none" stroke="none"></path><text fill="#000000" stroke="none" font-family="Arial" font-size="13px" font-style="normal" font-weight="normal" text-decoration="none" x="521" y="272.5">+get_token(): string</text></g></g><g transform="translate(-50,-58) scale(1,1)"><g><path fill="none" stroke="none"></path><text fill="#000000" stroke="none" font-family="Arial" font-size="13px" font-style="normal" font-weight="normal" text-decoration="none" x="521" y="287.5">+is_admin(): boolean</text></g></g><g transform="translate(-50,-58) scale(1,1)"><g><path fill="none" stroke="none"></path><text fill="#000000" stroke="none" font-family="Arial" font-size="13px" font-style="normal" font-weight="normal" text-decoration="none" x="521" y="302.5">+generate_barcode(): int</text></g></g><g transform="translate(-50,-58) scale(1,1)"><g><path fill="none" stroke="none"></path><text fill="#000000" stroke="none" font-family="Arial" font-size="13px" font-style="normal" font-weight="normal" text-decoration="none" x="521" y="317.5">+get_all_sessions(): Session[1..*]</text></g></g><g transform="translate(-50,-58) scale(1,1)"><g><path fill="none" stroke="none"></path><text fill="#000000" stroke="none" font-family="Arial" font-size="13px" font-style="normal" font-weight="normal" text-decoration="none" x="521" y="332.5">+to_json(): string</text></g></g><g transform="translate(-50,-58) scale(1,1)"><g><path fill="none" stroke="none"></path><text fill="#000000" stroke="none" font-family="Arial" font-size="13px" font-style="normal" font-weight="normal" text-decoration="none" x="521" y="347.5">-make_token(device: string, admin: boolean, user: integer, length: integer): string</text></g></g><g transform="translate(-50,-58) scale(1,1)"><rect fill="#ffffff" stroke="none" x="1036" y="112" width="369" height="175"></rect></g><g transform="translate(-50,-58) scale(1,1)"><path fill="none" stroke="#000000" d="M 1036 112 L 1405 112 L 1405 287 L 1036 287 L 1036 112 Z Z" stroke-miterlimit="10"></path></g><g transform="translate(-50,-58) scale(1,1)"><path fill="none" stroke="#000000" d="M 1036 137 L 1405 137" stroke-miterlimit="10"></path></g><g transform="translate(-50,-58) scale(1,1)"><path fill="none" stroke="#000000" d="M 1036 175 L 1405 175" stroke-miterlimit="10"></path></g><g transform="translate(-50,-58) scale(1,1)"><g><path fill="none" stroke="none"></path><text fill="#000000" stroke="none" font-family="Arial" font-size="13px" font-style="normal" font-weight="bold" text-decoration="none" x="1209.5" y="131.5">API</text></g></g><g transform="translate(-50,-58) scale(1,1)"><g><path fill="none" stroke="none"></path><text fill="#000000" stroke="none" font-family="Arial" font-size="13px" font-style="normal" font-weight="normal" text-decoration="none" x="1041" y="154.5">-path: string</text><path fill="none" stroke="#000000" d="M 1041 154.5 L 1110 154.5" stroke-miterlimit="10"></path></g></g><g transform="translate(-50,-58) scale(1,1)"><g><path fill="none" stroke="none"></path><text fill="#000000" stroke="none" font-family="Arial" font-size="13px" font-style="normal" font-weight="normal" text-decoration="none" x="1041" y="169.5">-declarations: string[0..*]</text><path fill="none" stroke="#000000" d="M 1041 169.5 L 1183 169.5" stroke-miterlimit="10"></path></g></g><g transform="translate(-50,-58) scale(1,1)"><g><path fill="none" stroke="none"></path><text fill="#000000" stroke="none" font-family="Arial" font-size="13px" font-style="normal" font-weight="normal" text-decoration="none" x="1041" y="192.5">-component(method: string, path: string, exec: function)</text><path fill="none" stroke="#000000" d="M 1041 192.5 L 1363 192.5" stroke-miterlimit="10"></path></g></g><g transform="translate(-50,-58) scale(1,1)"><g><path fill="none" stroke="none"></path><text fill="#000000" stroke="none" font-family="Arial" font-size="13px" font-style="normal" font-weight="normal" text-decoration="none" x="1041" y="207.5">+define(regexp: string, name: string)</text><path fill="none" stroke="#000000" d="M 1041 207.5 L 1251 207.5" stroke-miterlimit="10"></path></g></g><g transform="translate(-50,-58) scale(1,1)"><g><path fill="none" stroke="none"></path><text fill="#000000" stroke="none" font-family="Arial" font-size="13px" font-style="normal" font-weight="normal" text-decoration="none" x="1041" y="222.5">+get(path: string, exec: function)</text><path fill="none" stroke="#000000" d="M 1041 222.5 L 1230 222.5" stroke-miterlimit="10"></path></g></g><g transform="translate(-50,-58) scale(1,1)"><g><path fill="none" stroke="none"></path><text fill="#000000" stroke="none" font-family="Arial" font-size="13px" font-style="normal" font-weight="normal" text-decoration="none" x="1041" y="237.5">+post(path: string, exec: function)</text><path fill="none" stroke="#000000" d="M 1041 237.5 L 1237 237.5" stroke-miterlimit="10"></path></g></g><g transform="translate(-50,-58) scale(1,1)"><g><path fill="none" stroke="none"></path><text fill="#000000" stroke="none" font-family="Arial" font-size="13px" font-style="normal" font-weight="normal" text-decoration="none" x="1041" y="252.5">+put(path: string, exec: function)</text><path fill="none" stroke="#000000" d="M 1041 252.5 L 1230 252.5" stroke-miterlimit="10"></path></g></g><g transform="translate(-50,-58) scale(1,1)"><g><path fill="none" stroke="none"></path><text fill="#000000" stroke="none" font-family="Arial" font-size="13px" font-style="normal" font-weight="normal" text-decoration="none" x="1041" y="267.5">+delete(path: string, exec: function)</text><path fill="none" stroke="#000000" d="M 1041 267.5 L 1247 267.5" stroke-miterlimit="10"></path></g></g><g transform="translate(-50,-58) scale(1,1)"><g><path fill="none" stroke="none"></path><text fill="#000000" stroke="none" font-family="Arial" font-size="13px" font-style="normal" font-weight="normal" text-decoration="none" x="1041" y="282.5">-make_error(code: int, message: string)</text><path fill="none" stroke="#000000" d="M 1041 282.5 L 1269 282.5" stroke-miterlimit="10"></path></g></g><g transform="translate(-50,-58) scale(1,1)"><rect fill="#ffffff" stroke="none" x="1112" y="352" width="152" height="100"></rect></g><g transform="translate(-50,-58) scale(1,1)"><path fill="none" stroke="#000000" d="M 1112 352 L 1264 352 L 1264 452 L 1112 452 L 1112 352 Z Z" stroke-miterlimit="10"></path></g><g transform="translate(-50,-58) scale(1,1)"><path fill="none" stroke="#000000" d="M 1112 377 L 1264 377" stroke-miterlimit="10"></path></g><g transform="translate(-50,-58) scale(1,1)"><path fill="none" stroke="#000000" d="M 1112 415 L 1264 415" stroke-miterlimit="10"></path></g><g transform="translate(-50,-58) scale(1,1)"><g><path fill="none" stroke="none"></path><text fill="#000000" stroke="none" font-family="Arial" font-size="13px" font-style="normal" font-weight="bold" text-decoration="none" x="1159" y="371.5">Exception</text></g></g><g transform="translate(-50,-58) scale(1,1)"><g><path fill="none" stroke="none"></path><text fill="#000000" stroke="none" font-family="Arial" font-size="13px" font-style="normal" font-weight="normal" text-decoration="none" x="1117" y="394.5">#message: string</text></g></g><g transform="translate(-50,-58) scale(1,1)"><g><path fill="none" stroke="none"></path><text fill="#000000" stroke="none" font-family="Arial" font-size="13px" font-style="normal" font-weight="normal" text-decoration="none" x="1117" y="409.5">#code: int</text></g></g><g transform="translate(-50,-58) scale(1,1)"><g><path fill="none" stroke="none"></path><text fill="#000000" stroke="none" font-family="Arial" font-size="13px" font-style="normal" font-weight="normal" text-decoration="none" x="1117" y="432.5">+getMessage(): string</text></g></g><g transform="translate(-50,-58) scale(1,1)"><g><path fill="none" stroke="none"></path><text fill="#000000" stroke="none" font-family="Arial" font-size="13px" font-style="normal" font-weight="normal" text-decoration="none" x="1117" y="447.5">+getCode(): int</text></g></g><g transform="translate(-50,-58) scale(1,1)"><rect fill="#ffffff" stroke="none" x="1100" y="568" width="78" height="44"></rect></g><g transform="translate(-50,-58) scale(1,1)"><path fill="none" stroke="#000000" d="M 1100 568 L 1178 568 L 1178 612 L 1100 612 L 1100 568 Z Z" stroke-miterlimit="10"></path></g><g transform="translate(-50,-58) scale(1,1)"><path fill="none" stroke="#000000" d="M 1100 593 L 1178 593" stroke-miterlimit="10"></path></g><g transform="translate(-50,-58) scale(1,1)"><path fill="none" stroke="#000000" d="M 1100 603 L 1178 603" stroke-miterlimit="10"></path></g><g transform="translate(-50,-58) scale(1,1)"><g><path fill="none" stroke="none"></path><text fill="#000000" stroke="none" font-family="Arial" font-size="13px" font-style="normal" font-weight="bold" text-decoration="none" x="1111.5" y="587.5">UserError</text></g></g><g transform="translate(-50,-58) scale(1,1)"><rect fill="#ffffff" stroke="none" x="1184" y="568" width="101" height="44"></rect></g><g transform="translate(-50,-58) scale(1,1)"><path fill="none" stroke="#000000" d="M 1184 568 L 1285 568 L 1285 612 L 1184 612 L 1184 568 Z Z" stroke-miterlimit="10"></path></g><g transform="translate(-50,-58) scale(1,1)"><path fill="none" stroke="#000000" d="M 1184 593 L 1285 593" stroke-miterlimit="10"></path></g><g transform="translate(-50,-58) scale(1,1)"><path fill="none" stroke="#000000" d="M 1184 603 L 1285 603" stroke-miterlimit="10"></path></g><g transform="translate(-50,-58) scale(1,1)"><g><path fill="none" stroke="none"></path><text fill="#000000" stroke="none" font-family="Arial" font-size="13px" font-style="normal" font-weight="bold" text-decoration="none" x="1199" y="587.5">InternalError</text></g></g><g transform="translate(-50,-58) scale(1,1)"><path fill="none" stroke="#000000" d="M 1150 568 L 1150 452" stroke-miterlimit="10"></path></g><g transform="translate(-50,-58) scale(1,1)"><path fill="#FFFFFF" stroke="none" d="M 1158.419035512032 472.3253497152483 L 1150 452 L 1141.580964487968 472.3253497152483"></path></g><g transform="translate(-50,-58) scale(1,1)"><path fill="none" stroke="#000000" d="M 1158.419035512032 472.3253497152483 L 1150 452 L 1141.580964487968 472.3253497152483 L 1158.419035512032 472.3253497152483" stroke-miterlimit="10"></path></g><g transform="translate(-50,-58) scale(1,1)"><path fill="none" stroke="#000000" d="M 1202 568 L 1202 452" stroke-miterlimit="10"></path></g><g transform="translate(-50,-58) scale(1,1)"><path fill="#FFFFFF" stroke="none" d="M 1210.419035512032 472.3253497152483 L 1202 452 L 1193.580964487968 472.3253497152483"></path></g><g transform="translate(-50,-58) scale(1,1)"><path fill="none" stroke="#000000" d="M 1210.419035512032 472.3253497152483 L 1202 452 L 1193.580964487968 472.3253497152483 L 1210.419035512032 472.3253497152483" stroke-miterlimit="10"></path></g><g transform="translate(-50,-58) scale(1,1)"><path fill="none" stroke="#000000" d="M 567 548 L 389 548" stroke-miterlimit="10"></path></g><g transform="translate(-50,-58) scale(1,1)"><path fill="#FFFFFF" stroke="none" d="M 399.16267485762415 543.790482243984 L 389 548 L 399.16267485762415 552.209517756016 L 411 548"></path></g><g transform="translate(-50,-58) scale(1,1)"><path fill="none" stroke="#000000" d="M 399.16267485762415 543.790482243984 L 389 548 L 399.16267485762415 552.209517756016 L 411 548 L 399.16267485762415 543.790482243984" stroke-miterlimit="10"></path></g><g transform="translate(-50,-58) scale(1,1)"><g><path fill="none" stroke="none"></path><text fill="#000000" stroke="none" font-family="Arial" font-size="13px" font-style="normal" font-weight="normal" text-decoration="none" x="535" y="542">1..*</text></g></g><g transform="translate(-50,-58) scale(1,1)"><g><path fill="none" stroke="none"></path><text fill="#000000" stroke="none" font-family="Arial" font-size="13px" font-style="normal" font-weight="normal" text-decoration="none" x="400" y="542">1..*</text></g></g><g transform="translate(-50,-58) scale(1,1)"><path fill="none" stroke="#000000" d="M 399 209 L 515 210" stroke-miterlimit="10"></path></g><g transform="translate(-50,-58) scale(1,1)"><path fill="#FFFFFF" stroke="none" d="M 504.80141514965817 214.1217553360647 L 515 210 L 504.8739903452937 205.70303264234008 L 493.00081743363023 209.81035187442785"></path></g><g transform="translate(-50,-58) scale(1,1)"><path fill="none" stroke="#000000" d="M 504.80141514965817 214.1217553360647 L 515 210 L 504.8739903452937 205.70303264234008 L 493.00081743363023 209.81035187442785 L 504.80141514965817 214.1217553360647" stroke-miterlimit="10"></path></g><g transform="translate(-50,-58) scale(1,1)"><g><path fill="none" stroke="none"></path><text fill="#000000" stroke="none" font-family="Arial" font-size="13px" font-style="normal" font-weight="normal" text-decoration="none" x="417" y="228">1</text></g></g><g transform="translate(-50,-58) scale(1,1)"><g><path fill="none" stroke="none"></path><text fill="#000000" stroke="none" font-family="Arial" font-size="13px" font-style="normal" font-weight="normal" text-decoration="none" x="483" y="229">0..*</text></g></g></g></svg>